<?xml version="1.0" encoding="UTF-8"?>
<svg id="uuid-048a7736-4ca7-44c2-bf2b-79793424718b" data-name="Layer 1" xmlns="http://www.w3.org/2000/svg" viewBox="0 0 288 41">
  <defs>
    <style>
      .uuid-0f94fd52-c256-4323-8463-ff2bc91c0514 {
        fill: #c72326;
      }
    </style>
  </defs>
  <path d="m268.61,38.91c.81-.05,1.47-.15,2.08-.36.86-.3,1.27-1.17,1.27-2.28v-14.57c-.1-1.07-.51-2.13-1.27-2.69-.51-.41-1.52-.76-2.33-.81v-.96l7.82-.56.36.36v3.45h.05c1.98-2.79,4.01-4.06,5.99-4.06,1.57,0,3.1,1.42,3.1,3.1,0,1.78-1.07,3.2-2.64,3.2-1.47,0-2.69-.71-2.69-2.44,0-.51.36-.86.36-1.52-2.18,0-3.66,2.18-4.16,3.3v13.96c0,1.12.41,1.93,1.22,2.28.76.36,2.18.56,3.05.61v1.02h-12.18v-1.02Z"/>
  <path d="m220.42,38.88c.8-.05,1.46-.15,2.06-.35.85-.3,1.26-1.26,1.26-2.26v-14.41c-.1-1.05-.5-1.96-1.26-2.51-.55-.4-1.96-.9-2.76-.95v-.95l8.23-.55.3.35v18.73c0,1.05.45,1.91,1.25,2.31.7.35,1.51.55,2.06.6v1h-11.15v-1Zm2.16-32.33c0-1.71,1.36-3.16,3.01-3.16,1.86,0,3.11,1.36,3.11,2.96,0,1.76-1.31,3.26-3.11,3.26-1.66,0-3.01-1.41-3.01-3.06Z"/>
  <path class="uuid-0f94fd52-c256-4323-8463-ff2bc91c0514" d="m13.49,40.49c6.75,0,11.73-4.65,11.73-11.24,0-5.57-3.03-7.73-7.13-9.78-2.22-1.08-4.76-1.73-7.24-3.19-3.08-1.78-4.54-3.67-4.54-6.97,0-4.22,3.67-5.51,5.13-5.51,6.65,0,9.08,4.7,11.13,10.81h1.19l-.27-12.27h-1.84l-1.57,2.43c-1.78-1.46-5.03-2.59-7.62-2.59C6.52,2.18,1.98,6.44,1.98,12.17c0,4.7,2.27,7.73,6,9.46,2.81,1.3,4.81,2.05,7.62,3.24,3.3,1.41,4.97,3.89,4.97,7.19,0,4.05-2.22,6.81-6.75,6.81-6.27,0-9.51-5.46-11.62-11.19h-1.19l.32,12.65h1.78l1.68-2.49c1.57,1.3,4.54,2.65,8.7,2.65h0Zm23.61-.05c3.94,0,7.4-2.86,9.24-6.43l-1.08-.76c-1.57,3.13-3.62,4.81-6.97,4.81-4.22,0-6.59-4.54-6.59-11.08,0-8.16,2.81-11.02,5.73-11.02,1.68,0,2.43.38,2.7,1.95,0,1.03-.65,1.08-.65,3.35,0,2.11,1.95,2.7,2.92,2.7,1.73,0,2.76-1.24,2.76-3.03,0-3.3-2.59-6.27-7.67-6.27-6.86,0-11.13,6.16-11.13,12.81,0,7.46,3.57,12.97,10.75,12.97h0Z"/>
  <path class="uuid-0f94fd52-c256-4323-8463-ff2bc91c0514" d="m52.35,7.2c1.95,0,3.35-1.62,3.35-3.51,0-1.73-1.35-3.19-3.35-3.19-1.78,0-3.24,1.57-3.24,3.4s1.46,3.3,3.24,3.3h0Zm-5.57,32.59h12v-1.08c-.59-.05-1.46-.27-2.22-.65-.86-.43-1.35-1.35-1.35-2.49V15.41l-.32-.38-8.86.59v1.03c.86.05,2.38.59,2.97,1.03.81.59,1.24,1.57,1.35,2.7v15.51c0,1.08-.43,2.11-1.35,2.43-.65.22-1.35.32-2.22.38v1.08Z"/>
  <path class="uuid-0f94fd52-c256-4323-8463-ff2bc91c0514" d="m68.88,40.44c4.16,0,7.51-2.7,9.24-6.54l-.97-.65c-1.84,3.3-3.19,4.81-6.86,4.81-5.08,0-7.13-4.97-7.13-11.94v-.59h14.59v-.49c0-5.51-2.54-10.38-9.35-10.38s-10.54,6.21-10.54,12.7c0,7.13,3.51,13.08,11.02,13.08h0Zm-5.73-16.1c.11-5.08,2.27-8.43,5.19-8.43,3.46,0,4.22,4.43,4.22,8.32l-9.4.11Z"/>
  <path class="uuid-0f94fd52-c256-4323-8463-ff2bc91c0514" d="m77.74,39.79h11.94v-1.08c-.76-.05-1.62-.27-2.27-.65-.81-.43-1.24-1.24-1.24-2.43v-14.75c.49-1.24,2.38-3.51,5.78-3.51,2.05,0,3.89,2,3.89,5.73v12.81c0,1.19-.38,2.11-1.3,2.43-.59.22-1.46.32-2.27.38v1.08h12v-1.08c-.92-.05-1.57-.27-2.27-.59-.86-.43-1.24-1.24-1.24-2.43v-12.48c0-5.13-2.11-8.54-6.65-8.54-4.16,0-6,2.43-7.89,4.43h-.05v-3.67l-.38-.38-8.32.59v1.03c.86.05,1.94.43,2.49.86.81.59,1.24,1.73,1.35,2.86v15.51c0,1.19-.43,2.11-1.35,2.43-.65.22-1.35.32-2.22.38v1.08Z"/>
  <path class="uuid-0f94fd52-c256-4323-8463-ff2bc91c0514" d="m113.63,40.44c3.94,0,7.4-2.86,9.24-6.43l-1.08-.76c-1.57,3.13-3.62,4.81-6.97,4.81-4.22,0-6.59-4.54-6.59-11.08,0-8.16,2.81-11.02,5.73-11.02,1.68,0,2.43.38,2.7,1.95,0,1.03-.65,1.08-.65,3.35,0,2.11,1.95,2.7,2.92,2.7,1.73,0,2.76-1.24,2.76-3.03,0-3.3-2.59-6.27-7.67-6.27-6.86,0-11.13,6.16-11.13,12.81,0,7.46,3.57,12.97,10.75,12.97h0Zm20.48,0c4.16,0,7.51-2.7,9.24-6.54l-.97-.65c-1.84,3.3-3.19,4.81-6.86,4.81-5.08,0-7.13-4.97-7.13-11.94v-.59h14.59v-.49c0-5.51-2.54-10.38-9.35-10.38s-10.54,6.21-10.54,12.7c0,7.13,3.51,13.08,11.02,13.08h0Zm-5.73-16.1c.11-5.08,2.27-8.43,5.19-8.43,3.46,0,4.22,4.43,4.22,8.32l-9.4.11Z"/>
  <path d="m144.49,39.79h12.58v-1.09c-1.59-.1-5.1-.89-5.1-2.67,0-.69.2-1.68.5-2.77.4-1.49.94-3.17,1.78-5.45h10.8l2.72,7.83c.15.4.2.79.2,1.14,0,1.24-2.92,1.83-4.46,1.93v1.09h14.51v-1.09c-.84-.05-2.28-.4-3.02-.89-1.09-.69-1.44-1.39-1.83-2.43-1.68-4.66-5.99-17.14-10.55-29.97h-2.08c-3.37,9.51-7.08,19.96-10.25,28.48-.69,1.73-1.49,3.17-2.58,3.86-.79.5-2.33.89-3.22.94v1.09Zm10.35-13.62l4.81-13.67,4.85,13.67h-9.66Z"/>
  <path d="m184.9,40.43c2.82,0,4.95-1.93,5.94-3.07l.2.05v2.13l.3.35,7.98-.54v-.94c-.79-.05-2.18-.25-2.72-.64-.69-.54-1.04-1.39-1.14-2.43V3.18l-.35-.35-9.21.54v.89c1.24.1,3.17.54,3.91,1.14.74.54,1.09,1.83,1.19,2.87v9.81c-.54-.25-2.58-1.34-5.4-1.34-5.25,0-10.01,4.76-10.01,11.54,0,7.43,4.11,12.14,9.31,12.14h0Zm1.68-2.18c-4.31,0-5.99-4.56-5.99-9.51,0-6.79,2.28-10.9,5.55-10.9,2.92,0,4.36,2.43,4.85,4.11v14.02c-1.14,1.39-2.33,2.28-4.41,2.28h0Z"/>
  <path d="m208.23,40.13h1.73c.59-2.18,1.19-3.72,1.78-5.35,1.93-5.2,3.47-9.16,5.3-13.67.59-1.49,2.63-2.63,3.47-2.77v-.94h-8.47v.99c.69.1,3.42.79,3.42,1.78,0,.4-.15,1.04-.25,1.39-1.59,4.71-2.87,8.17-4.46,12.38h-.05c-1.88-5-4.11-10.9-4.9-13.33-.2-.59-.3-.99-.3-1.04,0-.79,1.59-.99,2.63-1.04v-1.14h-10.5v1.04c1.29.2,2.87,1.04,3.42,2.43,2.97,8.02,4.06,10.5,7.18,19.27h0Z"/>
  <path d="m259.59,40.38c3.81,0,6.89-2.48,8.47-5.99l-.89-.59c-1.68,3.02-2.92,4.41-6.29,4.41-4.66,0-6.54-4.56-6.54-10.95v-.54h13.37v-.45c0-5.05-2.33-9.51-8.57-9.51s-9.66,5.7-9.66,11.64c0,6.54,3.22,11.99,10.11,11.99h0Zm-5.25-14.76c.1-4.66,2.08-7.73,4.76-7.73,3.17,0,3.86,4.06,3.86,7.63l-8.62.1Zm-14.21,14.86c4.21,0,7.83-2.67,7.83-7.08,0-4.06-2.67-5.99-6.29-7.33-3.52-1.29-5.05-1.98-5.05-4.61,0-1.68,1.14-3.57,3.57-3.57,3.02,0,5.35,2.82,5.8,5.65h.99l-.3-6.84h-1.39l-.35,1.34c-1.09-.84-2.97-1.29-4.76-1.29-4.11,0-7.03,2.92-7.03,6.59,0,4.26,3.42,6.04,6.29,7.03,3.27,1.14,5.1,2.23,5.1,4.66s-1.19,4.26-4.16,4.26c-3.57,0-6.24-4.51-6.74-6.94h-1.04l.2,7.68h1.49l.45-1.54c.74.84,3.22,1.98,5.4,1.98h0Z"/>
</svg>